<svg xmlns="http://www.w3.org/2000/svg" viewBox="0 0 1745.0 720.0" width="1745.0" height="720.0" class="pmc-svg" data-theme="light">
<style>
:root {
  --pmc-bg: #ffffff;
  --pmc-ink: #111827;
  --pmc-ink-soft: #4b5563;
  --pmc-node-fill: #f9fafb;
  --pmc-node-stroke: #111827;
  --pmc-hairline: #9ca3af;
  --pmc-edge: #4b5563;
  --pmc-card-bg: #ffffff;
  --pmc-compartment-fill: rgba(0, 0, 0, 0.025);
  --pmc-bilayer-head: rgba(75, 85, 99, 0.45);
  --pmc-bilayer-tail: rgba(107, 114, 128, 0.35);
}
:root[data-theme="dark"], body.dark-mode {
  --pmc-bg: #0b0f19;
  --pmc-ink: #f3f4f6;
  --pmc-ink-soft: #9ca3af;
  --pmc-node-fill: #151d2e;
  --pmc-node-stroke: #f3f4f6;
  --pmc-hairline: #4b5563;
  --pmc-edge: #9ca3af;
  --pmc-card-bg: #111827;
  --pmc-compartment-fill: rgba(255, 255, 255, 0.035);
  --pmc-bilayer-head: rgba(156, 163, 175, 0.55);
  --pmc-bilayer-tail: rgba(156, 163, 175, 0.40);
}

.pmc-canvas { fill: var(--pmc-bg); }
text { font-family: 'DejaVu Sans', 'Helvetica Neue', Helvetica, Arial, sans-serif; fill: var(--pmc-ink); }
.pmc-title { font-size: 20px; font-weight: 700; }
.pmc-subtitle { font-size: 13px; fill: var(--pmc-ink-soft); }
.pmc-caption { font-size: 11.5px; fill: var(--pmc-ink-soft); }
.pmc-label { font-size: 12.5px; font-weight: 600; text-anchor: middle; }
.pmc-sub { font-size: 10px; fill: var(--pmc-ink-soft); text-anchor: middle; }

.pmc-node { fill: var(--pmc-node-fill); stroke: var(--pmc-node-stroke); rx: 6px; ry: 6px; }

/* Evidence Tiers as Border Channels */
.tier-T1 { stroke-width: 3.0px; stroke: var(--pmc-node-stroke); }
.tier-T2 { stroke-width: 1.8px; stroke: var(--pmc-node-stroke); }
.tier-T3 { stroke-width: 1.8px; stroke-dasharray: 6 4; stroke: var(--pmc-node-stroke); }
.tier-T4 { stroke-width: 1.5px; stroke-dasharray: 2 3; stroke: var(--pmc-ink-soft); }
.tier-T5 { stroke-width: 0.8px; stroke: var(--pmc-hairline); }

/* Evidence Tier Badges */
.tier-badge-bg { rx: 3px; ry: 3px; stroke-width: 0.5px; }
.tier-badge-T1 { fill: #0072b2; stroke: #005a8e; }
.tier-badge-T2 { fill: #009e73; stroke: #007a59; }
.tier-badge-T3 { fill: #e69f00; stroke: #b87f00; }
.tier-badge-T4 { fill: #56b4e9; stroke: #3a97cc; }
.tier-badge-T5 { fill: #9ca3af; stroke: #6b7280; }
.tier-badge-text { font-size: 8px; font-weight: 800; fill: #ffffff; text-anchor: middle; font-family: monospace; }

/* Bilayer Membrane Architectural Rails & Badges */
.pmc-bilayer-rail { fill: url(#pmc-bilayer-pattern); opacity: 0.85; }
.pmc-membrane-tag-group { opacity: 0.95; }
.pmc-membrane-chip-bg { fill: var(--pmc-card-bg); stroke: var(--pmc-hairline); stroke-width: 0.8px; rx: 3px; ry: 3px; }
.pmc-membrane-badge { font-size: 8px; font-weight: 700; font-family: 'DejaVu Sans Mono', monospace; letter-spacing: 0.03em; fill: var(--pmc-ink-soft); }

/* Holo-Complex I Super-Assembly Halo in PMM-01 */
.pmc-superassembly-halo { fill: rgba(0, 114, 178, 0.035); stroke: #0072b2; stroke-width: 1.5px; stroke-dasharray: 5 4; rx: 10px; ry: 10px; }
:root[data-theme="dark"] .pmc-superassembly-halo, body.dark-mode .pmc-superassembly-halo { fill: rgba(86, 180, 233, 0.06); stroke: #56b4e9; }
.pmc-superassembly-title { font-size: 9px; font-weight: 800; letter-spacing: 0.05em; fill: #0072b2; font-family: 'DejaVu Sans', 'Helvetica Neue', Helvetica, Arial, sans-serif; }
:root[data-theme="dark"] .pmc-superassembly-title, body.dark-mode .pmc-superassembly-title { fill: #56b4e9; }

/* Catalytic Cofactor & Innovation Badges */
.pmc-pill-bg { stroke-width: 0.8px; rx: 3px; ry: 3px; }
.pmc-pill-text { font-size: 8px; font-weight: 700; font-family: 'DejaVu Sans Mono', monospace; text-anchor: middle; letter-spacing: 0.02em; }

.pmc-pill-cofactor { fill: #eef2ff; stroke: #6366f1; }
.pmc-pill-cofactor-text { fill: #312e81; }
.pmc-pill-bypass { fill: #fef3c7; stroke: #d97706; }
.pmc-pill-bypass-text { fill: #78350f; }
.pmc-pill-plant_spec { fill: #ecfdf5; stroke: #059669; }
.pmc-pill-plant_spec-text { fill: #064e3b; }
.pmc-pill-sensor { fill: #f5f3ff; stroke: #8b5cf6; }
.pmc-pill-sensor-text { fill: #4c1d95; }

:root[data-theme="dark"] .pmc-pill-cofactor, body.dark-mode .pmc-pill-cofactor { fill: #1e1b4b; stroke: #818cf8; }
:root[data-theme="dark"] .pmc-pill-cofactor-text, body.dark-mode .pmc-pill-cofactor-text { fill: #e0e7ff; }
:root[data-theme="dark"] .pmc-pill-bypass, body.dark-mode .pmc-pill-bypass { fill: #451a03; stroke: #f59e0b; }
:root[data-theme="dark"] .pmc-pill-bypass-text, body.dark-mode .pmc-pill-bypass-text { fill: #fef3c7; }
:root[data-theme="dark"] .pmc-pill-plant_spec, body.dark-mode .pmc-pill-plant_spec { fill: #064e3b; stroke: #10b981; }
:root[data-theme="dark"] .pmc-pill-plant_spec-text, body.dark-mode .pmc-pill-plant_spec-text { fill: #d1fae5; }
:root[data-theme="dark"] .pmc-pill-sensor, body.dark-mode .pmc-pill-sensor { fill: #2e1065; stroke: #a78bfa; }
:root[data-theme="dark"] .pmc-pill-sensor-text, body.dark-mode .pmc-pill-sensor-text { fill: #ede9fe; }

.pmc-compartment { fill: var(--pmc-compartment-fill); stroke-width: 1.5px; stroke-dasharray: 4 4; rx: 12px; }
.pmc-compartment-label { font-size: 11px; font-weight: 700; letter-spacing: 0.08em; text-transform: uppercase; fill: var(--pmc-ink-soft); }

.pmc-edge { fill: none; stroke: var(--pmc-edge); stroke-width: 1.6px; }
.pmc-edge-electron_transfer { stroke: #0072B2; stroke-width: 2.2px; }
.pmc-edge-metabolite_flux { stroke: #009E73; stroke-width: 1.8px; stroke-dasharray: 4 3; }
.pmc-edge-activates { stroke: #E69F00; stroke-width: 1.8px; }
.pmc-edge-inhibits { stroke: #D55E00; stroke-width: 2.0px; }
.pmc-edge-cleaved_by { stroke: #CC79A7; stroke-dasharray: 5 3; }

/* Edge Label Scrim Chip */
.pmc-edge-label-bg { fill: var(--pmc-card-bg); stroke: var(--pmc-hairline); stroke-width: 0.8px; filter: drop-shadow(0 1px 2px rgba(0, 0, 0, 0.08)); }
.pmc-edge-label { font-size: 9px; fill: var(--pmc-ink); font-weight: 600; text-anchor: middle; letter-spacing: 0.01em; }
</style>
<defs>
<marker id="pmc-arrow" viewBox="0 0 10 10" refX="8" refY="5" markerWidth="6" markerHeight="6" orient="auto-start-reverse"><path d="M 0 1 L 9 5 L 0 9 z" fill="var(--pmc-edge)" /></marker>
<marker id="pmc-arrow-blue" viewBox="0 0 10 10" refX="8" refY="5" markerWidth="6" markerHeight="6" orient="auto-start-reverse"><path d="M 0 1 L 9 5 L 0 9 z" fill="#0072B2" /></marker>
<marker id="pmc-arrow-green" viewBox="0 0 10 10" refX="8" refY="5" markerWidth="6" markerHeight="6" orient="auto-start-reverse"><path d="M 0 1 L 9 5 L 0 9 z" fill="#009E73" /></marker>
<marker id="pmc-arrow-orange" viewBox="0 0 10 10" refX="8" refY="5" markerWidth="6" markerHeight="6" orient="auto-start-reverse"><path d="M 0 1 L 9 5 L 0 9 z" fill="#E69F00" /></marker>
<marker id="pmc-arrow-red" viewBox="0 0 10 10" refX="8" refY="5" markerWidth="6" markerHeight="6" orient="auto-start-reverse"><path d="M 0 1 L 9 5 L 0 9 z" fill="#D55E00" /></marker>
<marker id="pmc-arrow-purple" viewBox="0 0 10 10" refX="8" refY="5" markerWidth="6" markerHeight="6" orient="auto-start-reverse"><path d="M 0 1 L 9 5 L 0 9 z" fill="#CC79A7" /></marker>
<marker id="pmc-inhibit" viewBox="0 0 10 10" refX="5" refY="5" markerWidth="6" markerHeight="6" orient="auto"><line x1="5" y1="1" x2="5" y2="9" stroke="#D55E00" stroke-width="2.5" /></marker>
<pattern id="pmc-bilayer-pattern" width="16" height="14" patternUnits="userSpaceOnUse">
  <circle cx="4" cy="2.5" r="2.0" fill="var(--pmc-bilayer-head)" />
  <circle cx="12" cy="2.5" r="2.0" fill="var(--pmc-bilayer-head)" />
  <path d="M 3.2 4.5 C 2.5 6.5, 4.5 8.0, 3.5 10.0 M 4.8 4.5 C 5.5 6.5, 3.5 8.0, 4.5 10.0" stroke="var(--pmc-bilayer-tail)" stroke-width="0.8" fill="none" />
  <path d="M 11.2 4.5 C 10.5 6.5, 12.5 8.0, 11.5 10.0 M 12.8 4.5 C 13.5 6.5, 11.5 8.0, 12.5 10.0" stroke="var(--pmc-bilayer-tail)" stroke-width="0.8" fill="none" />
  <circle cx="4" cy="11.5" r="2.0" fill="var(--pmc-bilayer-head)" />
  <circle cx="12" cy="11.5" r="2.0" fill="var(--pmc-bilayer-head)" />
</pattern>
</defs>
<rect class="pmc-canvas" width="1745.0" height="720.0" />
<text class="pmc-title" x="32" y="44">Plasma Membrane Perception, Gravity Sensing, and Systemic Waves</text>
<text class="pmc-subtitle" x="32" y="66">Cell surface mechanical and gravity sensing driving calcium spikes and apoplastic ROS waves that propagate inward to mitochondria and chloroplasts.</text>
<rect class="pmc-compartment" x="40.0" y="110.0" width="262.0" height="328.5" stroke="#3d3d3d" />
<text class="pmc-compartment-label" x="52.0" y="128.0">Apoplast &amp; Cell Wall</text>
<rect class="pmc-compartment" x="358.0" y="110.0" width="598.8" height="421.5" stroke="#1d4e6b" />
<rect class="pmc-bilayer-rail" x="359.0" y="111.0" width="596.8" height="13.0" rx="6" />
<g class="pmc-membrane-tag-group"><rect class="pmc-membrane-chip-bg" x="802.8" y="128.0" width="142.0" height="13.0" /><text class="pmc-membrane-badge" x="873.8" y="137.5" text-anchor="middle">PLASMA MEMBRANE • BILAYER</text></g>
<text class="pmc-compartment-label" x="370.0" y="138.0">Plasma Membrane</text>
<rect class="pmc-compartment" x="1012.8" y="110.0" width="608.2" height="300.4" stroke="#264b63" />
<text class="pmc-compartment-label" x="1024.8" y="128.0">Cytosol</text>
<path class="pmc-edge pmc-edge-activates" d="M 278.0 184.1 L 323.0 184.1 Q 330.0 184.1 330.0 177.1 L 330.0 177.1 Q 330.0 170.1 337.0 170.1 L 382.0 170.1" marker-end="url(#pmc-arrow-orange)" />
<g class="pmc-edge-label-group">
<rect class="pmc-edge-label-bg" x="302.4" y="162.2" width="55.1" height="29.8" rx="4" />
<text class="pmc-edge-label" x="330.0" y="175.1">membrane</text>
<text class="pmc-edge-label" x="330.0" y="185.6">stretch</text>
</g>
<path class="pmc-edge pmc-edge-activates" d="M 278.0 294.3 L 322.0 294.3 Q 330.0 294.3 330.0 286.3 L 330.0 274.2 Q 330.0 266.2 338.0 266.2 L 382.0 266.2" marker-end="url(#pmc-arrow-orange)" />
<g class="pmc-edge-label-group">
<rect class="pmc-edge-label-bg" x="296.6" y="271.3" width="66.9" height="17.9" rx="4" />
<text class="pmc-edge-label" x="330.0" y="283.2">OG binding</text>
</g>
<path class="pmc-edge pmc-edge-activates" d="M 278.0 184.1 L 322.0 184.1 Q 330.0 184.1 330.0 192.1 L 330.0 371.1 Q 330.0 379.1 338.0 379.1 L 382.0 379.1" marker-end="url(#pmc-arrow-orange)" />
<g class="pmc-edge-label-group">
<rect class="pmc-edge-label-bg" x="305.4" y="266.8" width="49.2" height="29.8" rx="4" />
<text class="pmc-edge-label" x="330.0" y="279.6">stretch</text>
<text class="pmc-edge-label" x="330.0" y="290.1">gating</text>
</g>
<path class="pmc-edge pmc-edge-activates" d="M 592.0 170.1 L 640.9 170.1 Q 644.0 170.1 644.0 173.2 L 644.0 173.2 Q 644.0 176.3 647.1 176.3 L 696.0 176.3" marker-end="url(#pmc-arrow-orange)" />
<g class="pmc-edge-label-group">
<rect class="pmc-edge-label-bg" x="607.6" y="164.2" width="72.8" height="17.9" rx="4" />
<text class="pmc-edge-label" x="644.0" y="176.2">Ca2+ gating</text>
</g>
<path class="pmc-edge pmc-edge-activates" d="M 592.0 379.1 L 636.0 379.1 Q 644.0 379.1 644.0 371.1 L 644.0 114.0 Q 644.0 106.0 652.0 106.0 L 976.8 106.0 Q 984.8 106.0 984.8 114.0 L 984.8 162.1 Q 984.8 170.1 992.8 170.1 L 1036.8 170.1" marker-end="url(#pmc-arrow-orange)" />
<g class="pmc-edge-label-group">
<rect class="pmc-edge-label-bg" x="772.1" y="97.1" width="84.6" height="17.9" rx="4" />
<text class="pmc-edge-label" x="814.4" y="109.0">cation influx</text>
</g>
<path class="pmc-edge pmc-edge-activates" d="M 932.8 176.3 L 981.7 176.3 Q 984.8 176.3 984.8 173.2 L 984.8 173.2 Q 984.8 170.1 987.9 170.1 L 1036.8 170.1" marker-end="url(#pmc-arrow-orange)" />
<g class="pmc-edge-label-group">
<rect class="pmc-edge-label-bg" x="951.3" y="164.2" width="66.9" height="17.9" rx="4" />
<text class="pmc-edge-label" x="984.8" y="176.2">rapid Ca2+</text>
</g>
<path class="pmc-edge pmc-edge-activates" d="M 1146.5 194.1 L 1146.5 242.1" marker-end="url(#pmc-arrow-orange)" />
<g class="pmc-edge-label-group">
<rect class="pmc-edge-label-bg" x="1121.9" y="203.2" width="49.2" height="29.8" rx="4" />
<text class="pmc-edge-label" x="1146.5" y="216.1">EF-hand</text>
<text class="pmc-edge-label" x="1146.5" y="226.6">binding</text>
</g>
<path class="pmc-edge pmc-edge-activates" d="M 1036.8 266.2 L 992.8 266.2 Q 984.8 266.2 984.8 274.2 L 984.8 276.9 Q 984.8 284.9 976.8 284.9 L 932.8 284.9" marker-end="url(#pmc-arrow-orange)" />
<g class="pmc-edge-label-group">
<rect class="pmc-edge-label-bg" x="945.5" y="266.6" width="78.7" height="17.9" rx="4" />
<text class="pmc-edge-label" x="984.8" y="278.6">Ser343/347-P</text>
</g>
<path class="pmc-edge pmc-edge-electron_transfer" d="M 278.0 390.4 L 322.0 390.4 Q 330.0 390.4 330.0 398.4 L 330.0 551.5 Q 330.0 559.5 338.0 559.5 L 636.0 559.5 Q 644.0 559.5 644.0 551.5 L 644.0 292.9 Q 644.0 284.9 652.0 284.9 L 696.0 284.9" marker-end="url(#pmc-arrow-blue)" />
<g class="pmc-edge-label-group">
<rect class="pmc-edge-label-bg" x="456.5" y="544.6" width="61.0" height="29.8" rx="4" />
<text class="pmc-edge-label" x="487.0" y="557.5">generates</text>
<text class="pmc-edge-label" x="487.0" y="568.0">O2•-</text>
</g>
<path class="pmc-edge pmc-edge-metabolite_flux" d="M 814.4 315.2 L 814.4 363.2" marker-end="url(#pmc-arrow-green)" />
<g class="pmc-edge-label-group">
<rect class="pmc-edge-label-bg" x="775.1" y="330.3" width="78.7" height="17.9" rx="4" />
<text class="pmc-edge-label" x="814.4" y="342.2">O2•- -&gt; H2O2</text>
</g>
<path class="pmc-edge pmc-edge-metabolite_flux" d="M 932.8 387.3 L 976.8 387.3 Q 984.8 387.3 984.8 379.3 L 984.8 370.3 Q 984.8 362.3 992.8 362.3 L 1036.8 362.3" marker-end="url(#pmc-arrow-green)" />
<g class="pmc-edge-label-group">
<rect class="pmc-edge-label-bg" x="951.3" y="359.9" width="66.9" height="29.8" rx="4" />
<text class="pmc-edge-label" x="984.8" y="372.8">H2O2</text>
<text class="pmc-edge-label" x="984.8" y="383.3">channeling</text>
</g>
<path class="pmc-edge pmc-edge-activates" d="M 1256.2 170.1 L 1304.3 170.1 Q 1308.2 170.1 1308.2 174.0 L 1308.2 174.0 Q 1308.2 177.9 1312.1 177.9 L 1360.2 177.9" marker-end="url(#pmc-arrow-orange)" />
<g class="pmc-edge-label-group">
<rect class="pmc-edge-label-bg" x="1274.7" y="165.0" width="66.9" height="17.9" rx="4" />
<text class="pmc-edge-label" x="1308.2" y="177.0">MCU uptake</text>
</g>
<path class="pmc-edge pmc-edge-activates" d="M 1256.2 362.3 L 1300.2 362.3 Q 1308.2 362.3 1308.2 354.3 L 1308.2 185.9 Q 1308.2 177.9 1316.2 177.9 L 1360.2 177.9" marker-end="url(#pmc-arrow-orange)" />
<g class="pmc-edge-label-group">
<rect class="pmc-edge-label-bg" x="1274.7" y="255.2" width="66.9" height="29.8" rx="4" />
<text class="pmc-edge-label" x="1308.2" y="268.1">rhomboid /</text>
<text class="pmc-edge-label" x="1308.2" y="278.6">AOX1a</text>
</g>
<path class="pmc-edge pmc-edge-activates" d="M 1256.2 170.1 L 1300.2 170.1 Q 1308.2 170.1 1308.2 178.1 L 1308.2 273.8 Q 1308.2 281.8 1316.2 281.8 L 1360.2 281.8" marker-end="url(#pmc-arrow-orange)" />
<g class="pmc-edge-label-group">
<rect class="pmc-edge-label-bg" x="1268.9" y="217.0" width="78.7" height="17.9" rx="4" />
<text class="pmc-edge-label" x="1308.2" y="228.9">stromal Ca2+</text>
</g>
<path class="pmc-edge pmc-edge-activates" d="M 1256.2 362.3 L 1300.2 362.3 Q 1308.2 362.3 1308.2 354.3 L 1308.2 289.8 Q 1308.2 281.8 1316.2 281.8 L 1360.2 281.8" marker-end="url(#pmc-arrow-orange)" />
<g class="pmc-edge-label-group">
<rect class="pmc-edge-label-bg" x="1277.7" y="307.2" width="61.0" height="29.8" rx="4" />
<text class="pmc-edge-label" x="1308.2" y="320.1">SAL1</text>
<text class="pmc-edge-label" x="1308.2" y="330.6">oxidation</text>
</g>
<g class="pmc-node-group" id="node-WALL_STRAIN"><rect class="pmc-node tier-T4" x="64.0" y="146.0" width="214.0" height="76.2" />
<g class="pmc-tier-badge-group"><rect class="tier-badge-bg tier-badge-T4" x="250.0" y="152.0" width="22.0" height="13.0" /><text class="tier-badge-text" x="261.0" y="161.5">T4</text></g>
<text class="pmc-label" x="171.0" y="164.6">Mechanical /</text>
<text class="pmc-label" x="171.0" y="179.6">Microgravity Strain</text>
<text class="pmc-sub" x="171.0" y="194.6">wall deformation • gravity</text>
<text class="pmc-sub" x="171.0" y="206.6">vector shift</text>
</g>
<g class="pmc-node-group" id="node-APOPLASTIC_PECTIN"><rect class="pmc-node tier-T4" x="64.0" y="270.2" width="214.0" height="48.1" />
<g class="pmc-tier-badge-group"><rect class="tier-badge-bg tier-badge-T4" x="250.0" y="276.2" width="22.0" height="13.0" /><text class="tier-badge-text" x="261.0" y="285.8">T4</text></g>
<text class="pmc-label" x="171.0" y="288.3">Apoplastic Pectin Matrix</text>
<text class="pmc-sub" x="171.0" y="303.3">oligogalacturonides • crosslinks</text>
</g>
<g class="pmc-node-group" id="node-EXTRACELLULAR_O2"><rect class="pmc-node tier-T4" x="64.0" y="366.4" width="214.0" height="48.1" />
<g class="pmc-tier-badge-group"><rect class="tier-badge-bg tier-badge-T4" x="250.0" y="372.4" width="22.0" height="13.0" /><text class="tier-badge-text" x="261.0" y="381.9">T4</text></g>
<text class="pmc-label" x="171.0" y="384.4">Apoplastic Oxygen Pool</text>
<text class="pmc-sub" x="171.0" y="399.4">substrate for RBOHD</text>
</g>
<g class="pmc-node-group" id="node-FERONIA_RECEPTOR"><rect class="pmc-node tier-T1" x="382.0" y="146.0" width="210.0" height="48.1" />
<g class="pmc-tier-badge-group"><rect class="tier-badge-bg tier-badge-T1" x="564.0" y="152.0" width="22.0" height="13.0" /><text class="tier-badge-text" x="575.0" y="161.5">T1</text></g>
<text class="pmc-label" x="487.0" y="164.1">FERONIA Receptor Kinase</text>
<text class="pmc-sub" x="487.0" y="179.1">CrRLK1L • RALF peptide receptor</text>
</g>
<g class="pmc-node-group" id="node-WAK1_PECTIN_KINASE"><rect class="pmc-node tier-T1" x="382.0" y="242.1" width="210.0" height="48.1" />
<g class="pmc-tier-badge-group"><rect class="tier-badge-bg tier-badge-T1" x="564.0" y="248.1" width="22.0" height="13.0" /><text class="tier-badge-text" x="575.0" y="257.6">T1</text></g>
<text class="pmc-label" x="487.0" y="260.2">WAK1 Kinase</text>
<text class="pmc-sub" x="487.0" y="275.2">binds pectin • cell wall sensor</text>
</g>
<g class="pmc-node-group" id="node-MSL10_STRETCH_GATE"><rect class="pmc-node tier-T1" x="382.0" y="338.2" width="210.0" height="81.8" />
<g class="pmc-tier-badge-group"><rect class="tier-badge-bg tier-badge-T1" x="564.0" y="344.2" width="22.0" height="13.0" /><text class="tier-badge-text" x="575.0" y="353.8">T1</text></g>
<g class="pmc-badge-pill-group"><rect class="pmc-pill-bg pmc-pill-sensor" x="446.9" y="401.0" width="80.2" height="13.0" rx="3" /><text class="pmc-pill-text pmc-pill-sensor-text" x="487.0" y="410.5">MECHANO-GATED</text></g>
<text class="pmc-label" x="487.0" y="356.6">MSL10 Mechanosensitive</text>
<text class="pmc-label" x="487.0" y="371.6">Channel</text>
<text class="pmc-sub" x="487.0" y="386.6">turgor sensor</text>
</g>
<g class="pmc-node-group" id="node-GLR_CALCIUM_CHANNELS"><rect class="pmc-node tier-T1" x="696.0" y="146.0" width="236.8" height="60.6" />
<g class="pmc-tier-badge-group"><rect class="tier-badge-bg tier-badge-T1" x="904.8" y="152.0" width="22.0" height="13.0" /><text class="tier-badge-text" x="915.8" y="161.5">T1</text></g>
<text class="pmc-label" x="814.4" y="164.3">GLR3.3 / GLR3.6 Channels</text>
<text class="pmc-sub" x="814.4" y="179.3">Ca2+ influx gates • rapid electrical</text>
<text class="pmc-sub" x="814.4" y="191.3">wave</text>
</g>
<g class="pmc-node-group" id="node-RBOHD_OXIDASE"><rect class="pmc-node tier-T1" x="696.0" y="254.6" width="236.8" height="60.6" />
<g class="pmc-tier-badge-group"><rect class="tier-badge-bg tier-badge-T1" x="904.8" y="260.6" width="22.0" height="13.0" /><text class="tier-badge-text" x="915.8" y="270.1">T1</text></g>
<text class="pmc-label" x="814.4" y="272.9">RBOHD NADPH Oxidase</text>
<text class="pmc-sub" x="814.4" y="287.9">apoplastic superoxide generator •</text>
<text class="pmc-sub" x="814.4" y="299.9">Ca2+ activated</text>
</g>
<g class="pmc-node-group" id="node-PIP2_1_AQUAPORIN"><rect class="pmc-node tier-T1" x="696.0" y="363.2" width="236.8" height="48.1" />
<g class="pmc-tier-badge-group"><rect class="tier-badge-bg tier-badge-T1" x="904.8" y="369.2" width="22.0" height="13.0" /><text class="tier-badge-text" x="915.8" y="378.8">T1</text></g>
<text class="pmc-label" x="814.4" y="381.3">PIP2;1 Aquaporin</text>
<text class="pmc-sub" x="814.4" y="396.3">channels H2O2 • inward conduit</text>
</g>
<g class="pmc-node-group" id="node-AHA1_PROTON_PUMP"><rect class="pmc-node tier-T1" x="696.0" y="459.4" width="236.8" height="48.1" />
<g class="pmc-tier-badge-group"><rect class="tier-badge-bg tier-badge-T1" x="904.8" y="465.4" width="22.0" height="13.0" /><text class="tier-badge-text" x="915.8" y="474.9">T1</text></g>
<text class="pmc-label" x="814.4" y="477.4">AHA1 H+-ATPase</text>
<text class="pmc-sub" x="814.4" y="492.4">electrogenic pump • maintains ΔpH</text>
</g>
<g class="pmc-node-group" id="node-CYTOSOLIC_CA_SPIKE"><rect class="pmc-node tier-T4" x="1036.8" y="146.0" width="219.4" height="48.1" />
<g class="pmc-tier-badge-group"><rect class="tier-badge-bg tier-badge-T4" x="1228.2" y="152.0" width="22.0" height="13.0" /><text class="tier-badge-text" x="1239.2" y="161.5">T4</text></g>
<text class="pmc-label" x="1146.5" y="164.1">Cytosolic [Ca2+] Wave</text>
<text class="pmc-sub" x="1146.5" y="179.1">second messenger spike</text>
</g>
<g class="pmc-node-group" id="node-CPK_KINASES"><rect class="pmc-node tier-T4" x="1036.8" y="242.1" width="219.4" height="48.1" />
<g class="pmc-tier-badge-group"><rect class="tier-badge-bg tier-badge-T4" x="1228.2" y="248.1" width="22.0" height="13.0" /><text class="tier-badge-text" x="1239.2" y="257.6">T4</text></g>
<text class="pmc-label" x="1146.5" y="260.2">CPKs / BIK1 Kinases</text>
<text class="pmc-sub" x="1146.5" y="275.2">calcium-dependent phosphorylation</text>
</g>
<g class="pmc-node-group" id="node-INWARD_H2O2_FLUX"><rect class="pmc-node tier-T4" x="1036.8" y="338.2" width="219.4" height="48.1" />
<g class="pmc-tier-badge-group"><rect class="tier-badge-bg tier-badge-T4" x="1228.2" y="344.2" width="22.0" height="13.0" /><text class="tier-badge-text" x="1239.2" y="353.8">T4</text></g>
<text class="pmc-label" x="1146.5" y="356.3">Cytosolic H2O2 Wave</text>
<text class="pmc-sub" x="1146.5" y="371.3">redox messenger</text>
</g>
<g class="pmc-node-group" id="node-MITO_PERCEPTION"><rect class="pmc-node tier-T4" x="1360.2" y="146.0" width="236.8" height="63.8" />
<g class="pmc-tier-badge-group"><rect class="tier-badge-bg tier-badge-T4" x="1569.0" y="152.0" width="22.0" height="13.0" /><text class="tier-badge-text" x="1580.0" y="161.5">T4</text></g>
<text class="pmc-label" x="1478.6" y="164.4">Mitochondrial Bioenergetic</text>
<text class="pmc-label" x="1478.6" y="179.4">Tuning</text>
<text class="pmc-sub" x="1478.6" y="194.4">MCU Ca2+ uptake • stimulates TCA/AOX</text>
</g>
<g class="pmc-node-group" id="node-CHLORO_PERCEPTION"><rect class="pmc-node tier-T4" x="1360.2" y="257.8" width="236.8" height="48.1" />
<g class="pmc-tier-badge-group"><rect class="tier-badge-bg tier-badge-T4" x="1569.0" y="263.8" width="22.0" height="13.0" /><text class="tier-badge-text" x="1580.0" y="273.2">T4</text></g>
<text class="pmc-label" x="1478.6" y="275.8">Chloroplast Stroma Tuning</text>
<text class="pmc-sub" x="1478.6" y="290.8">stromal Ca2+ • redox adjustments</text>
</g>
</svg>